<?xml version="1.0" encoding="UTF-8"?>
<svg id="Layer_2" data-name="Layer 2" xmlns="http://www.w3.org/2000/svg" viewBox="0 0 186.39 380.47">
  <defs>
    <style>
      .cls-1 {
        fill: #fff;
      }
    </style>
  </defs>
  <g id="Layer_1-2" data-name="Layer 1">
    <g>
      <path class="cls-1" d="M93.24,114.88c-31.54,0-57.19-25.66-57.19-57.19S61.7.5,93.24.5s57.19,25.66,57.19,57.19-25.66,57.19-57.19,57.19Z"/>
      <path d="M93.24,1c31.26,0,56.69,25.43,56.69,56.69s-25.43,56.69-56.69,56.69-56.69-25.43-56.69-56.69S61.98,1,93.24,1M93.24,0c-31.86,0-57.69,25.83-57.69,57.69s25.83,57.69,57.69,57.69,57.69-25.83,57.69-57.69S125.1,0,93.24,0h0Z"/>
    </g>
    <g>
      <rect class="cls-1" x="36.04" y="115.88" width="114.38" height="151.66" rx="24.37" ry="24.37"/>
      <path d="M126.06,116.38c13.16,0,23.87,10.71,23.87,23.87v102.92c0,13.16-10.71,23.87-23.87,23.87H60.42c-13.16,0-23.87-10.71-23.87-23.87v-102.92c0-13.16,10.71-23.87,23.87-23.87h65.64M126.06,115.38H60.42c-13.74,0-24.87,11.14-24.87,24.87v102.92c0,13.74,11.14,24.87,24.87,24.87h65.64c13.74,0,24.87-11.14,24.87-24.87v-102.92c0-13.74-11.14-24.87-24.87-24.87h0Z"/>
    </g>
    <g>
      <rect class="cls-1" x="36.04" y="268.55" width="56.69" height="111.43" rx="9.73" ry="9.73"/>
      <path d="M83.01,269.05c5.09,0,9.23,4.14,9.23,9.23v91.97c0,5.09-4.14,9.23-9.23,9.23h-37.24c-5.09,0-9.23-4.14-9.23-9.23v-91.97c0-5.09,4.14-9.23,9.23-9.23h37.24M83.01,268.05h-37.24c-5.65,0-10.23,4.58-10.23,10.23v91.97c0,5.65,4.58,10.23,10.23,10.23h37.24c5.65,0,10.23-4.58,10.23-10.23v-91.97c0-5.65-4.58-10.23-10.23-10.23h0Z"/>
    </g>
    <g>
      <rect class="cls-1" x="93.7" y="268.55" width="56.69" height="111.43" rx="10.59" ry="10.59"/>
      <path d="M139.79,269.05c5.57,0,10.09,4.53,10.09,10.09v90.24c0,5.57-4.53,10.09-10.09,10.09h-35.5c-5.57,0-10.09-4.53-10.09-10.09v-90.24c0-5.57,4.53-10.09,10.09-10.09h35.5M139.79,268.05h-35.5c-6.13,0-11.09,4.97-11.09,11.09v90.24c0,6.13,4.97,11.09,11.09,11.09h35.5c6.13,0,11.09-4.97,11.09-11.09v-90.24c0-6.13-4.97-11.09-11.09-11.09h0Z"/>
    </g>
    <g>
      <rect class="cls-1" x=".5" y="124.76" width="34.54" height="111.43" rx="9.73" ry="9.73"/>
      <path d="M25.32,125.26c5.09,0,9.23,4.14,9.23,9.23v91.97c0,5.09-4.14,9.23-9.23,9.23h-15.09c-5.09,0-9.23-4.14-9.23-9.23v-91.97c0-5.09,4.14-9.23,9.23-9.23h15.09M25.32,124.26h-15.09c-5.65,0-10.23,4.58-10.23,10.23v91.97c0,5.65,4.58,10.23,10.23,10.23h15.09c5.65,0,10.23-4.58,10.23-10.23v-91.97c0-5.65-4.58-10.23-10.23-10.23h0Z"/>
    </g>
    <g>
      <path class="cls-1" d="M161.07,124.76h15.09c5.37,0,9.73,4.36,9.73,9.73v91.97c0,5.37-4.36,9.73-9.73,9.73h-15.09c-5.37,0-9.73-4.36-9.73-9.73v-91.97c0-5.37,4.36-9.73,9.73-9.73Z"/>
      <path d="M176.16,125.26c5.09,0,9.23,4.14,9.23,9.23v91.97c0,5.09-4.14,9.23-9.23,9.23h-15.09c-5.09,0-9.23-4.14-9.23-9.23v-91.97c0-5.09,4.14-9.23,9.23-9.23h15.09M176.16,124.26h-15.09c-5.65,0-10.23,4.58-10.23,10.23v91.97c0,5.65,4.58,10.23,10.23,10.23h15.09c5.65,0,10.23-4.58,10.23-10.23v-91.97c0-5.65-4.58-10.23-10.23-10.23h0Z"/>
    </g>
  </g>
</svg>